<svg width="167" height="237" viewBox="0 0 167 237" fill="none" xmlns="http://www.w3.org/2000/svg">
<path d="M37.5553 235.272C37.5553 220.288 39.0615 206.099 42.1332 191.369C49.7225 154.975 58.9202 118.788 71.177 83.6739C80.1318 58.0198 94.2029 32.195 99.9957 5.54827C103.688 -11.4363 85.6358 37.2098 78.832 53.2041C75.9953 59.8725 36.0248 153.891 59.6196 148.666C87.5277 142.486 110.755 96.5846 105.549 69.7148C102.859 55.8294 88.01 55.745 76.5805 56.056C55.9546 56.6172 34.8993 61.2418 16.2415 70.1651C11.0162 72.6642 -2.21478 80.1333 3.33309 81.7977C17.2947 85.9861 38.1287 75.1386 50.4636 70.4653C51.0566 70.2407 74.9871 60.8223 76.8807 60.1086C80.8798 58.6015 90.6419 53.3134 89.4138 57.4069C88.6601 59.9194 81.8524 65.625 87.2374 67.9137C98.835 72.8426 119.5 67.2975 130.991 64.7616C142.769 62.1624 153.608 57.8221 164.538 52.9039" stroke="#111827" stroke-width="3" stroke-linecap="round"/>
</svg>
